<svg version="1.1" id="Layer_1" xmlns="http://www.w3.org/2000/svg" xmlns:xlink="http://www.w3.org/1999/xlink" x="0px" y="0px"
	 width="100%" viewBox="0 0 1280 1600" enable-background="new 0 0 1280 1600" xml:space="preserve">
<path fill="#151932" opacity="1.000000" stroke="none" 
	d="
M637.000000,1601.000000 
	C424.666718,1601.000000 212.833405,1601.000000 1.000085,1601.000000 
	C1.000057,1067.666748 1.000057,534.333618 1.000028,1.000300 
	C427.666473,1.000200 854.332947,1.000200 1280.999512,1.000100 
	C1280.999756,534.333069 1280.999756,1067.666138 1280.999878,1600.999512 
	C1066.500000,1601.000000 852.000000,1601.000000 637.000000,1601.000000 
M593.002808,598.994812 
	C593.002808,598.994812 593.005981,599.017090 593.764099,598.898621 
	C599.846680,597.450439 605.929199,596.002258 612.755493,594.773376 
	C613.527283,594.771790 614.299011,594.770264 615.805420,594.963135 
	C630.906494,596.832947 638.987183,606.129272 642.087708,621.355774 
	C645.959656,616.195679 649.131531,611.968506 652.008179,607.794006 
	C652.008179,607.794006 652.084839,608.083862 652.670288,607.754883 
	C653.572937,606.486755 654.475525,605.218689 655.020996,604.452332 
	C648.143066,601.720459 641.671631,599.150085 635.216858,596.691223 
	C635.216858,596.691223 635.326538,596.665588 634.869690,596.189819 
	C632.586365,595.384583 630.302979,594.579407 627.392334,593.259155 
	C616.854370,589.551025 606.104126,589.691101 595.396301,592.030579 
	C566.151062,598.420166 555.642029,627.498474 573.687134,651.393311 
	C580.028809,659.790710 588.725891,664.897949 597.717102,669.657837 
	C607.850769,675.022522 618.299500,679.820312 628.247437,685.501648 
	C647.349670,696.411072 652.896851,718.182251 641.281799,736.596985 
	C638.290955,741.338623 639.220337,745.812988 639.333984,751.261658 
	C651.512939,744.283020 659.716492,735.187500 662.405212,721.894775 
	C663.027527,718.818665 664.477478,717.834656 667.385681,716.859009 
	C680.269287,712.536987 701.046570,727.266663 705.093079,739.563232 
	C711.970947,760.463928 700.558899,782.219299 678.580566,788.519287 
	C661.932190,793.291382 644.871704,790.012268 627.379456,791.114990 
	C627.379456,787.850037 627.378357,785.228455 627.379517,782.606873 
	C627.391418,756.449829 627.443420,730.292664 627.341797,704.136108 
	C627.333496,702.002502 626.968933,698.925659 625.582581,697.914124 
	C620.873718,694.477722 615.631897,691.771667 609.550842,688.168823 
	C609.550842,710.962463 609.550842,732.338745 609.550842,754.137329 
	C607.308105,753.877686 605.667236,753.832886 604.094055,753.483154 
	C588.813110,750.085754 580.203979,739.817383 576.010010,725.443542 
	C574.391113,719.895020 573.789795,714.049500 572.647522,707.924866 
	C567.792603,714.103699 563.120178,719.744995 558.870239,725.688354 
	C557.891479,727.057068 557.650146,729.739685 558.277161,731.346252 
	C563.567688,744.900879 574.307678,752.302185 587.837036,755.734314 
	C594.811340,757.503601 602.125488,757.933228 610.145203,759.092346 
	C609.537964,770.760925 608.919556,782.644409 608.285400,794.830994 
	C609.370483,794.886230 610.827759,795.023865 612.285156,795.024902 
	C632.446350,795.039734 652.612976,795.302185 672.765747,794.889160 
	C679.653748,794.747925 686.744019,793.676025 693.324219,791.663513 
	C705.430542,787.960754 715.506714,781.151062 721.657043,768.727966 
	C726.138062,758.511780 726.411743,747.966431 722.822998,737.619019 
	C718.063599,723.896729 706.583862,718.001038 692.608032,714.704529 
	C695.309814,712.454712 697.268494,710.823669 699.106018,709.094666 
	C699.106018,709.094666 699.192627,709.224182 699.829773,708.997009 
	C702.706665,705.380737 706.095581,702.058411 708.369934,698.096313 
	C717.267029,682.597168 715.834534,664.083008 705.164001,652.834534 
	C705.164001,652.834534 705.291016,652.755920 705.053345,652.129456 
	C699.674072,648.602844 694.294861,645.076172 688.461975,641.170288 
	C688.264832,641.167297 688.067749,641.164368 687.376953,640.890930 
	C681.187073,639.904358 675.011719,638.191040 668.804626,638.066956 
	C649.875000,637.688416 630.933228,637.915405 611.996155,637.931580 
	C610.588745,637.932800 609.181458,638.131653 607.577576,638.253540 
	C608.175537,642.756714 608.718994,646.849121 609.225891,651.832825 
	C609.371704,652.406494 609.517517,652.980225 608.923523,654.131653 
	C602.908997,650.512085 596.071838,647.777588 591.039734,643.100952 
	C577.857605,630.850098 577.612976,614.696228 589.004883,601.007324 
	C589.135498,601.142090 589.266113,601.276855 589.995117,601.212463 
	C591.003906,600.478333 592.012634,599.744202 593.002808,598.994812 
M720.719788,994.705200 
	C720.719788,994.705200 721.039795,995.009216 721.192322,995.608154 
	C721.350281,995.740417 721.508240,995.872620 721.830383,996.653381 
	C724.507263,1001.451172 727.124512,1006.284058 729.908081,1011.019165 
	C730.510925,1012.044739 731.690857,1013.416382 732.639465,1013.444092 
	C739.676392,1013.649353 746.722107,1013.555359 752.576843,1013.555359 
	C746.392212,1005.198547 739.519714,997.079773 733.970032,988.139771 
	C725.637817,974.717590 718.958252,960.234192 710.185730,947.132874 
	C704.059082,937.983154 704.715027,931.127319 710.628540,922.328369 
	C723.322388,903.440857 731.559143,881.540466 749.264832,865.941528 
	C743.217468,865.941528 737.350891,865.941528 732.237183,865.941528 
	C728.680908,890.917542 712.423340,909.023132 701.651245,930.584778 
	C700.447815,928.986145 699.876221,928.384644 699.484436,927.682678 
	C692.750183,915.617065 685.830627,903.648193 679.395447,891.424561 
	C675.230530,883.513428 671.011780,875.457947 671.932800,865.883606 
	C667.371094,865.883606 663.103882,865.883606 658.221069,865.692322 
	C657.801331,865.757812 657.381592,865.823364 656.198303,865.652527 
	C651.507080,865.652527 646.815796,865.652527 642.252808,865.652527 
	C646.597046,870.597046 651.399841,874.722412 654.531555,879.865295 
	C666.634644,899.740479 678.245361,919.916992 689.874695,940.076233 
	C690.588013,941.312744 690.508484,943.765320 689.739929,944.985779 
	C675.227234,968.030884 665.371216,994.138489 644.985718,1013.182861 
	C650.874084,1013.182861 656.754883,1013.182861 661.827087,1013.182861 
	C665.595764,987.675415 682.330933,969.158508 693.214783,946.395874 
	C702.867798,963.223145 711.778381,978.756104 720.900940,994.063354 
	C720.900940,994.063354 720.667542,994.266968 720.719788,994.705200 
M589.132935,883.298157 
	C589.469727,918.071899 589.806519,952.845581 590.595703,988.345581 
	C588.922729,996.703796 587.249817,1005.062012 585.606995,1013.269775 
	C593.438599,1013.269775 602.463562,1013.269775 611.919800,1013.269775 
	C605.685791,1001.680481 604.947205,989.488525 604.958069,977.149658 
	C604.977600,954.993469 604.970032,932.837280 604.959106,910.681091 
	C604.951660,895.483093 604.193054,880.182068 611.823364,865.982605 
	C602.273132,865.982605 593.250977,865.982605 585.106445,865.982605 
	C586.514587,871.527405 587.879333,876.901428 589.132935,883.298157 
M931.094238,932.754150 
	C937.594849,916.137512 937.697876,899.578369 927.826294,884.459778 
	C915.464844,865.527954 896.327393,861.550049 875.232605,863.338379 
	C865.983093,864.122559 856.730408,864.873352 847.473572,865.564270 
	C845.285828,865.727600 843.075439,865.588501 842.214783,865.588501 
	C843.937866,875.191772 846.661194,884.046875 846.910156,892.971008 
	C847.592529,917.434998 847.298035,941.928040 847.266113,966.409485 
	C847.245422,982.254456 848.579712,998.308655 840.521912,1013.170776 
	C850.068848,1013.170776 859.068970,1013.170776 868.041443,1013.170776 
	C866.710022,1009.923645 865.209656,1007.116577 864.390930,1004.123047 
	C860.419128,989.601624 860.579407,974.818176 862.677734,960.097351 
	C863.411072,954.952454 865.071045,949.597473 867.668884,945.129883 
	C873.579285,934.965637 885.281738,934.153687 892.469299,943.464844 
	C896.363953,948.510254 899.548767,954.400269 901.767029,960.386108 
	C907.817993,976.714783 913.154297,993.307556 918.878418,1009.759338 
	C919.363098,1011.152649 920.582947,1013.312073 921.540588,1013.355164 
	C928.437073,1013.665588 935.354004,1013.521362 943.561646,1013.521362 
	C925.447632,996.152222 922.940063,972.876160 914.750854,954.205505 
	C920.560120,946.693176 925.680969,940.071167 931.094238,932.754150 
M361.853119,942.867310 
	C363.682800,936.618774 368.040070,933.011719 374.253265,932.026672 
	C390.882019,929.390137 406.892120,931.048767 421.884613,939.957581 
	C421.884613,932.613525 421.884613,925.470703 421.884613,918.141846 
	C411.324982,924.795959 400.151001,927.306458 388.243988,927.061523 
	C378.565186,926.862366 368.927612,926.871765 361.436218,934.234253 
	C360.814117,933.687927 360.362885,933.474976 360.365601,933.268005 
	C360.592590,916.131348 360.344574,898.965820 361.331421,881.871643 
	C361.819427,873.418152 367.380554,869.599365 376.056885,869.342224 
	C381.382965,869.184448 386.717224,869.262207 392.047485,869.291931 
	C405.229065,869.365356 418.477570,869.212585 429.462646,880.020203 
	C429.462646,874.682556 429.462646,870.468567 429.462646,866.003113 
	C399.343842,866.003113 369.376892,866.003113 339.112701,866.003113 
	C344.396759,875.243286 345.860687,884.943970 345.935303,894.784546 
	C346.141296,921.935791 345.938721,949.089966 346.036957,976.242432 
	C346.082886,988.927979 345.496521,1001.446228 339.142059,1013.336243 
	C368.835114,1013.336243 398.077454,1013.336243 427.833405,1013.336243 
	C429.527191,1007.491516 431.256531,1001.524048 433.284180,994.527161 
	C430.752625,996.645508 429.042511,998.141235 427.265198,999.552246 
	C420.338013,1005.051758 412.704590,1008.809875 403.653900,1009.059998 
	C395.009338,1009.298767 386.366974,1009.694153 377.721100,1009.789001 
	C367.029968,1009.906311 361.496796,1005.241028 360.948914,994.416931 
	C360.225647,980.127930 360.304688,965.794922 360.228394,951.479797 
	C360.214539,948.875549 361.109772,946.266357 361.853119,942.867310 
M483.544342,996.095093 
	C483.389221,994.441040 483.106995,992.787781 483.097809,991.132874 
	C482.927979,960.474915 482.640594,929.816101 482.756744,899.158936 
	C482.784302,891.886230 483.872162,884.565430 485.084961,877.369995 
	C485.743378,873.463623 487.691681,869.774597 489.066498,865.964294 
	C479.864899,865.964294 471.011017,865.964294 462.631134,865.964294 
	C464.242981,871.789368 466.210602,877.257812 467.191498,882.897888 
	C468.213409,888.773438 468.656525,894.811768 468.702759,900.783875 
	C468.871613,922.612061 468.795807,944.442444 468.760620,966.271851 
	C468.734955,982.188721 469.608063,998.240845 461.666290,1013.559082 
	C491.413574,1013.559082 520.535400,1013.578247 549.656860,1013.483093 
	C550.725586,1013.479614 552.473572,1012.575195 552.745911,1011.721130 
	C554.440186,1006.407654 555.803406,1000.988586 557.655090,994.220642 
	C548.411926,1003.101379 539.155457,1008.878113 527.324585,1009.130493 
	C518.343750,1009.322021 509.365387,1009.686890 500.383972,1009.774597 
	C490.242798,1009.873596 486.272339,1006.704773 483.544342,996.095093 
M788.352112,906.499878 
	C788.352112,926.323547 788.453247,946.147949 788.320190,965.970703 
	C788.212708,981.983704 789.850647,998.262817 781.570801,1013.304932 
	C791.006042,1013.304932 799.910522,1013.304932 807.673340,1013.304932 
	C806.034912,1004.377808 803.218872,995.554993 803.004150,986.669312 
	C802.295837,957.367065 802.447388,928.042114 802.472656,898.726013 
	C802.477417,893.268860 803.041870,887.740356 804.046814,882.375671 
	C805.090942,876.802429 806.982849,871.388000 808.506958,865.893311 
	C799.641541,865.893311 790.752563,865.893311 781.931946,865.893311 
	C783.369873,869.875427 785.409241,873.476074 785.895813,877.275574 
	C787.094543,886.635071 787.579895,896.085876 788.352112,906.499878 
M775.847839,685.346497 
	C773.982117,690.599243 774.886414,695.768677 775.372437,700.950745 
	C775.776611,700.959351 776.180786,700.967957 776.585022,700.976562 
	C776.891907,699.048828 777.198853,697.121033 777.742188,693.708313 
	C779.526672,697.193481 780.625000,699.338562 782.202515,702.419373 
	C783.902649,699.044800 785.150146,696.568726 786.397583,694.092651 
	C786.737854,694.172729 787.078064,694.252808 787.418335,694.332886 
	C787.758423,696.596497 788.098511,698.860168 788.438599,701.123840 
	C788.766174,701.106934 789.093811,701.089966 789.421387,701.073059 
	C789.421387,695.862549 789.421387,690.651978 789.421387,684.905640 
	C783.868164,686.178894 786.181091,692.969055 781.788208,695.202087 
	C781.012634,693.327942 780.407104,691.482422 779.505310,689.795166 
	C778.641235,688.178223 777.469666,686.725525 775.847839,685.346497 
M460.975647,690.032166 
	C462.877319,691.466370 464.922760,692.752258 466.620331,694.397156 
	C467.475769,695.226013 467.700348,696.705933 468.210205,697.891479 
	C466.779449,698.177917 465.323486,698.760681 463.927155,698.642029 
	C463.059875,698.568420 462.282898,697.431824 460.525482,696.014099 
	C461.292999,701.399475 464.439758,702.242554 467.395844,701.338379 
	C469.117432,700.811829 471.316833,697.963318 471.223724,696.274109 
	C471.074219,693.560425 468.000305,691.044800 470.784729,687.971436 
	C470.842834,687.907288 469.281067,685.715149 468.223022,685.420593 
	C464.633850,684.421265 461.564819,684.943481 460.975647,690.032166 
M810.945496,696.843445 
	C813.243408,687.708008 808.821106,683.551147 799.206238,685.788513 
	C799.206238,690.882935 799.206238,695.969421 799.206238,701.242432 
	C803.727173,701.347229 808.258423,702.650879 810.945496,696.843445 
M443.670532,692.546509 
	C443.670532,695.328491 443.670532,698.110535 443.670532,700.944214 
	C447.185730,700.944214 450.183075,700.944214 453.180420,700.944214 
	C453.197571,700.665405 453.214722,700.386658 453.231903,700.107849 
	C450.919098,699.800110 448.606293,699.492371 446.215729,699.174316 
	C446.215729,697.431641 446.215729,695.983276 446.215729,694.394165 
	C448.555084,694.081909 450.680756,693.798218 452.806458,693.514465 
	C452.803070,693.148132 452.799683,692.781799 452.796295,692.415466 
	C450.659882,692.168518 448.523438,691.921570 446.356842,691.671143 
	C444.334473,684.802002 451.016052,688.384521 453.450653,685.619263 
	C449.901581,685.619263 447.013794,685.619263 443.672729,685.619263 
	C443.672729,687.686096 443.672729,689.658813 443.670532,692.546509 
M826.400879,692.014465 
	C824.988159,691.914551 823.575500,691.814575 822.229126,691.719299 
	C822.229126,689.950989 822.229126,688.652100 822.229126,687.299194 
	C824.613281,687.039490 826.836609,686.797302 829.059875,686.555176 
	C829.005249,686.178467 828.950562,685.801758 828.895935,685.425049 
	C826.028992,685.425049 823.162048,685.425049 820.038452,685.425049 
	C820.038452,690.733398 820.038452,695.840881 820.038452,700.846191 
	C823.361633,700.846191 826.430420,700.846191 829.499207,700.846191 
	C829.501831,700.558899 829.504456,700.271606 829.507080,699.984253 
	C827.129822,699.795166 824.752563,699.606079 822.349915,699.414978 
	C822.349915,697.455139 822.349915,695.876709 822.349915,694.299194 
	C824.746094,694.011353 826.857910,693.757751 828.969788,693.504089 
	C828.956726,693.188477 828.943665,692.872925 828.930603,692.557312 
	C828.376038,692.377075 827.821472,692.196777 826.400879,692.014465 
M482.004822,689.706116 
	C482.004822,693.533569 482.004822,697.361084 482.004822,701.188538 
	C482.678680,701.203857 483.352570,701.219238 484.026428,701.234558 
	C484.026428,696.667175 484.026428,692.099792 484.026428,687.751038 
	C486.266388,687.127136 487.555542,686.768066 488.844666,686.408997 
	C488.797394,686.178162 488.750122,685.947266 488.702850,685.716431 
	C485.138672,685.716431 481.574524,685.716431 477.795410,685.716431 
	C479.503845,686.998047 480.754608,687.936279 482.004822,689.706116 
z"/>
<path fill="#EABF98" opacity="1.000000" stroke="none" 
	d="
M721.058228,769.096741 
	C715.506714,781.151062 705.430542,787.960754 693.324219,791.663513 
	C686.744019,793.676025 679.653748,794.747925 672.765747,794.889160 
	C652.612976,795.302185 632.446350,795.039734 612.285156,795.024902 
	C610.827759,795.023865 609.370483,794.886230 608.285400,794.830994 
	C608.919556,782.644409 609.537964,770.760925 610.145203,759.092346 
	C602.125488,757.933228 594.811340,757.503601 587.837036,755.734314 
	C574.307678,752.302185 563.567688,744.900879 558.277161,731.346252 
	C557.650146,729.739685 557.891479,727.057068 558.870239,725.688354 
	C563.120178,719.744995 567.792603,714.103699 572.647522,707.924866 
	C573.789795,714.049500 574.391113,719.895020 576.010010,725.443542 
	C580.203979,739.817383 588.813110,750.085754 604.094055,753.483154 
	C605.667236,753.832886 607.308105,753.877686 609.550842,754.137329 
	C609.550842,732.338745 609.550842,710.962463 609.550842,688.168823 
	C615.631897,691.771667 620.873718,694.477722 625.582581,697.914124 
	C626.968933,698.925659 627.333496,702.002502 627.341797,704.136108 
	C627.443420,730.292664 627.391418,756.449829 627.379517,782.606873 
	C627.378357,785.228455 627.379456,787.850037 627.379456,791.114990 
	C644.871704,790.012268 661.932190,793.291382 678.580566,788.519287 
	C700.558899,782.219299 711.970947,760.463928 705.093079,739.563232 
	C701.046570,727.266663 680.269287,712.536987 667.385681,716.859009 
	C664.477478,717.834656 663.027527,718.818665 662.405212,721.894775 
	C659.716492,735.187500 651.512939,744.283020 639.333984,751.261658 
	C639.220337,745.812988 638.290955,741.338623 641.281799,736.596985 
	C652.896851,718.182251 647.349670,696.411072 628.247437,685.501648 
	C618.299500,679.820312 607.850769,675.022522 597.717102,669.657837 
	C588.725891,664.897949 580.028809,659.790710 573.687134,651.393311 
	C555.642029,627.498474 566.151062,598.420166 595.396301,592.030579 
	C606.104126,589.691101 616.854370,589.551025 627.621704,593.813965 
	C626.444092,594.638306 625.038330,595.124084 623.629822,595.131958 
	C620.777588,595.147949 617.923889,594.904907 615.070801,594.768677 
	C614.299011,594.770264 613.527283,594.771790 612.182739,594.377075 
	C604.500427,592.304749 598.438416,594.498047 593.005981,599.017090 
	C593.005981,599.017090 593.002808,598.994812 592.643677,599.003967 
	C591.321960,599.812622 590.359375,600.612122 589.396790,601.411621 
	C589.266113,601.276855 589.135498,601.142090 588.842773,601.191772 
	C587.666687,601.888550 586.571899,602.285706 585.651367,602.931274 
	C578.084167,608.238586 578.968567,616.639282 579.529846,623.854126 
	C580.753845,639.588623 591.023438,648.836121 605.055054,654.314453 
	C606.302124,654.801331 608.113831,653.841736 609.663330,653.553894 
	C609.517517,652.980225 609.371704,652.406494 609.406860,651.025757 
	C611.133057,638.077026 611.296204,637.942078 623.124512,639.020020 
	C623.288574,639.035034 623.511108,638.972473 623.609497,639.057739 
	C624.837646,640.122742 626.047913,641.208496 627.312744,642.739746 
	C627.366333,646.678406 627.821228,650.237854 627.280762,653.639160 
	C626.103088,661.049744 628.899963,665.166016 635.747437,668.469360 
	C650.271301,675.475952 659.933289,686.862305 662.541443,703.287231 
	C663.096619,706.783142 663.064392,710.372253 663.311523,714.048462 
	C667.241821,713.228760 670.784729,712.489868 674.780029,711.801636 
	C678.580200,711.519958 682.660889,712.666687 683.697266,707.702515 
	C683.701965,707.744812 683.616882,707.744690 683.866211,707.637939 
	C684.377563,707.287720 684.639709,707.044189 685.027710,706.549622 
	C685.750244,705.859009 686.346924,705.419556 687.243652,704.893555 
	C688.018372,704.170837 688.493042,703.534607 689.032349,702.674316 
	C689.239868,702.144226 689.476685,701.957520 690.167114,701.837646 
	C695.013672,700.301636 695.234131,696.723511 694.930786,692.902161 
	C694.960022,692.930481 694.878784,692.925110 695.223999,692.798767 
	C698.552490,688.598145 699.207581,668.846375 696.436218,664.861694 
	C695.981750,664.208069 695.217407,663.769958 694.634155,663.231689 
	C694.672058,663.231140 694.662781,663.306396 694.657593,662.996460 
	C694.329956,662.181641 694.007446,661.676819 693.722412,661.173584 
	C693.759949,661.175293 693.740173,661.247742 693.780029,660.854431 
	C693.023315,659.370789 692.226624,658.280457 691.202148,657.065918 
	C690.513123,656.228271 690.051941,655.514771 689.615295,654.417847 
	C688.455078,653.023987 687.270325,652.013550 685.802612,650.921143 
	C684.991882,650.270874 684.464233,649.702515 683.860718,648.781616 
	C682.182129,647.628235 680.579346,646.827393 678.988281,646.013306 
	C679.000000,646.000000 678.976379,646.026306 678.761841,645.828125 
	C678.004456,645.438354 677.461731,645.246704 676.937744,645.035889 
	C676.956543,645.016663 676.948975,645.070129 676.817871,644.743408 
	C673.193420,642.954163 669.700134,641.491638 666.206848,640.029114 
	C668.235840,639.023560 670.283569,638.830444 672.282349,639.061096 
	C677.489929,639.662048 682.676025,640.448792 687.870728,641.161438 
	C688.067749,641.164368 688.264832,641.167297 688.746521,641.690430 
	C694.451050,645.725647 699.871033,649.240784 705.291016,652.755920 
	C705.291016,652.755920 705.164001,652.834534 705.178345,653.155212 
	C706.398438,655.759338 707.600037,658.045044 708.810730,660.325867 
	C716.315613,674.463867 711.685425,694.400024 700.414124,705.653015 
	C699.614990,706.450806 699.581909,708.015869 699.192627,709.224182 
	C699.192627,709.224182 699.106018,709.094666 698.799744,709.168579 
	C695.611084,710.991821 692.728760,712.741211 689.846436,714.490601 
	C690.079773,715.014709 690.313110,715.538757 690.546448,716.062866 
	C691.426636,716.359558 692.286621,716.815063 693.189880,716.929443 
	C710.341797,719.101562 722.812561,732.483643 722.910156,749.572571 
	C722.947327,756.076904 721.713074,762.588440 721.058228,769.096741 
z"/>
<path fill="#E7BD97" opacity="1.000000" stroke="none" 
	d="
M930.947998,933.101624 
	C925.680969,940.071167 920.560120,946.693176 914.750854,954.205505 
	C922.940063,972.876160 925.447632,996.152222 943.561646,1013.521362 
	C935.354004,1013.521362 928.437073,1013.665588 921.540588,1013.355164 
	C920.582947,1013.312073 919.363098,1011.152649 918.878418,1009.759338 
	C913.154297,993.307556 907.817993,976.714783 901.767029,960.386108 
	C899.548767,954.400269 896.363953,948.510254 892.469299,943.464844 
	C885.281738,934.153687 873.579285,934.965637 867.668884,945.129883 
	C865.071045,949.597473 863.411072,954.952454 862.677734,960.097351 
	C860.579407,974.818176 860.419128,989.601624 864.390930,1004.123047 
	C865.209656,1007.116577 866.710022,1009.923645 868.041443,1013.170776 
	C859.068970,1013.170776 850.068848,1013.170776 840.521912,1013.170776 
	C848.579712,998.308655 847.245422,982.254456 847.266113,966.409485 
	C847.298035,941.928040 847.592529,917.434998 846.910156,892.971008 
	C846.661194,884.046875 843.937866,875.191772 842.214783,865.588501 
	C843.075439,865.588501 845.285828,865.727600 847.473572,865.564270 
	C856.730408,864.873352 865.983093,864.122559 875.232605,863.338379 
	C896.327393,861.550049 915.464844,865.527954 927.826294,884.459778 
	C937.697876,899.578369 937.594849,916.137512 930.947998,933.101624 
M913.826782,889.854919 
	C907.824036,875.890503 897.235596,868.082520 882.129028,866.712891 
	C872.377197,865.828796 865.747559,870.614929 863.217224,880.018311 
	C862.532654,882.562378 862.069153,885.241150 862.017273,887.868286 
	C861.655334,906.183289 861.426697,924.500916 861.160950,942.817810 
	C861.139038,944.329407 861.158203,945.841675 861.158203,947.353638 
	C868.180176,928.382202 892.972229,926.845886 910.193359,945.679016 
	C911.879272,942.617920 913.763184,939.902039 914.957458,936.910828 
	C921.157471,921.380920 919.306946,905.939209 913.826782,889.854919 
z"/>
<path fill="#E6BD99" opacity="1.000000" stroke="none" 
	d="
M361.719238,943.263428 
	C361.109772,946.266357 360.214539,948.875549 360.228394,951.479797 
	C360.304688,965.794922 360.225647,980.127930 360.948914,994.416931 
	C361.496796,1005.241028 367.029968,1009.906311 377.721100,1009.789001 
	C386.366974,1009.694153 395.009338,1009.298767 403.653900,1009.059998 
	C412.704590,1008.809875 420.338013,1005.051758 427.265198,999.552246 
	C429.042511,998.141235 430.752625,996.645508 433.284180,994.527161 
	C431.256531,1001.524048 429.527191,1007.491516 427.833405,1013.336243 
	C398.077454,1013.336243 368.835114,1013.336243 339.142059,1013.336243 
	C345.496521,1001.446228 346.082886,988.927979 346.036957,976.242432 
	C345.938721,949.089966 346.141296,921.935791 345.935303,894.784546 
	C345.860687,884.943970 344.396759,875.243286 339.112701,866.003113 
	C369.376892,866.003113 399.343842,866.003113 429.462646,866.003113 
	C429.462646,870.468567 429.462646,874.682556 429.462646,880.020203 
	C418.477570,869.212585 405.229065,869.365356 392.047485,869.291931 
	C386.717224,869.262207 381.382965,869.184448 376.056885,869.342224 
	C367.380554,869.599365 361.819427,873.418152 361.331421,881.871643 
	C360.344574,898.965820 360.592590,916.131348 360.365601,933.268005 
	C360.362885,933.474976 360.814117,933.687927 361.436218,934.234253 
	C368.927612,926.871765 378.565186,926.862366 388.243988,927.061523 
	C400.151001,927.306458 411.324982,924.795959 421.884613,918.141846 
	C421.884613,925.470703 421.884613,932.613525 421.884613,939.957581 
	C406.892120,931.048767 390.882019,929.390137 374.253265,932.026672 
	C368.040070,933.011719 363.682800,936.618774 361.719238,943.263428 
z"/>
<path fill="#E5BB95" opacity="1.000000" stroke="none" 
	d="
M483.646088,996.513062 
	C486.272339,1006.704773 490.242798,1009.873596 500.383972,1009.774597 
	C509.365387,1009.686890 518.343750,1009.322021 527.324585,1009.130493 
	C539.155457,1008.878113 548.411926,1003.101379 557.655090,994.220642 
	C555.803406,1000.988586 554.440186,1006.407654 552.745911,1011.721130 
	C552.473572,1012.575195 550.725586,1013.479614 549.656860,1013.483093 
	C520.535400,1013.578247 491.413574,1013.559082 461.666290,1013.559082 
	C469.608063,998.240845 468.734955,982.188721 468.760620,966.271851 
	C468.795807,944.442444 468.871613,922.612061 468.702759,900.783875 
	C468.656525,894.811768 468.213409,888.773438 467.191498,882.897888 
	C466.210602,877.257812 464.242981,871.789368 462.631134,865.964294 
	C471.011017,865.964294 479.864899,865.964294 489.066498,865.964294 
	C487.691681,869.774597 485.743378,873.463623 485.084961,877.369995 
	C483.872162,884.565430 482.784302,891.886230 482.756744,899.158936 
	C482.640594,929.816101 482.927979,960.474915 483.097809,991.132874 
	C483.106995,992.787781 483.389221,994.441040 483.646088,996.513062 
z"/>
<path fill="#E7BD97" opacity="1.000000" stroke="none" 
	d="
M788.352051,905.999939 
	C787.579895,896.085876 787.094543,886.635071 785.895813,877.275574 
	C785.409241,873.476074 783.369873,869.875427 781.931946,865.893311 
	C790.752563,865.893311 799.641541,865.893311 808.506958,865.893311 
	C806.982849,871.388000 805.090942,876.802429 804.046814,882.375671 
	C803.041870,887.740356 802.477417,893.268860 802.472656,898.726013 
	C802.447388,928.042114 802.295837,957.367065 803.004150,986.669312 
	C803.218872,995.554993 806.034912,1004.377808 807.673340,1013.304932 
	C799.910522,1013.304932 791.006042,1013.304932 781.570801,1013.304932 
	C789.850647,998.262817 788.212708,981.983704 788.320190,965.970703 
	C788.453247,946.147949 788.352112,926.323547 788.352051,905.999939 
z"/>
<path fill="#EABF98" opacity="1.000000" stroke="none" 
	d="
M589.244141,882.275391 
	C587.879333,876.901428 586.514587,871.527405 585.106445,865.982605 
	C593.250977,865.982605 602.273132,865.982605 611.823364,865.982605 
	C604.193054,880.182068 604.951660,895.483093 604.959106,910.681091 
	C604.970032,932.837280 604.977600,954.993469 604.958069,977.149658 
	C604.947205,989.488525 605.685791,1001.680481 611.919800,1013.269775 
	C602.463562,1013.269775 593.438599,1013.269775 585.606995,1013.269775 
	C587.249817,1005.062012 588.922729,996.703796 590.674438,987.635132 
	C590.776978,955.114319 590.844238,923.303955 590.755432,891.493958 
	C590.746826,888.419678 589.770996,885.348206 589.244141,882.275391 
z"/>
<path fill="#ECBF97" opacity="1.000000" stroke="none" 
	d="
M721.666199,996.004822 
	C721.508240,995.872620 721.350281,995.740417 721.173035,995.188232 
	C721.144287,994.464233 720.982178,994.297119 720.667542,994.266968 
	C720.667542,994.266968 720.900940,994.063354 720.855652,993.773438 
	C720.283447,991.603821 720.097595,989.534607 719.175232,987.874634 
	C712.428650,975.732971 705.567017,963.654602 698.677246,951.593201 
	C692.191528,940.239197 685.625183,928.931335 679.101990,917.598816 
	C678.771912,917.025330 678.541931,916.394714 678.219116,915.816406 
	C672.576660,905.709534 667.256287,895.402527 661.163635,885.574341 
	C657.052124,878.942017 651.849182,872.986267 647.165771,866.769409 
	C650.588928,866.461731 653.775391,866.175293 656.961853,865.888855 
	C657.381592,865.823364 657.801331,865.757812 658.956299,865.842224 
	C666.958069,866.288757 667.839355,867.040344 670.298218,874.021240 
	C674.598511,886.230469 679.610840,898.056580 687.017761,908.839294 
	C691.953247,916.024353 696.236450,923.685303 700.442993,931.335938 
	C705.134216,939.867859 709.287537,948.694214 713.905884,957.268005 
	C716.967712,962.952087 720.957581,968.180664 723.610352,974.031067 
	C728.801025,985.478394 735.753479,995.673767 743.706421,1005.294312 
	C744.919434,1006.761719 745.750732,1008.544678 747.015686,1010.599304 
	C745.370605,1011.202820 744.368042,1011.787842 743.307556,1011.925232 
	C734.908264,1013.013428 731.479248,1010.755005 726.927673,1002.078979 
	C725.716187,999.769775 723.448792,998.014465 721.666199,996.004822 
z"/>
<path fill="#DBB99D" opacity="1.000000" stroke="none" 
	d="
M721.748291,996.329102 
	C723.448792,998.014465 725.716187,999.769775 726.927673,1002.078979 
	C731.479248,1010.755005 734.908264,1013.013428 743.307556,1011.925232 
	C744.368042,1011.787842 745.370605,1011.202820 747.015686,1010.599304 
	C745.750732,1008.544678 744.919434,1006.761719 743.706421,1005.294312 
	C735.753479,995.673767 728.801025,985.478394 723.610352,974.031067 
	C720.957581,968.180664 716.967712,962.952087 713.905884,957.268005 
	C709.287537,948.694214 705.134216,939.867859 700.442993,931.335938 
	C696.236450,923.685303 691.953247,916.024353 687.017761,908.839294 
	C679.610840,898.056580 674.598511,886.230469 670.298218,874.021240 
	C667.839355,867.040344 666.958069,866.288757 659.264038,865.937866 
	C663.103882,865.883606 667.371094,865.883606 671.932800,865.883606 
	C671.011780,875.457947 675.230530,883.513428 679.395447,891.424561 
	C685.830627,903.648193 692.750183,915.617065 699.484436,927.682678 
	C699.876221,928.384644 700.447815,928.986145 701.651245,930.584778 
	C712.423340,909.023132 728.680908,890.917542 732.237183,865.941528 
	C737.350891,865.941528 743.217468,865.941528 749.264832,865.941528 
	C731.559143,881.540466 723.322388,903.440857 710.628540,922.328369 
	C704.715027,931.127319 704.059082,937.983154 710.185730,947.132874 
	C718.958252,960.234192 725.637817,974.717590 733.970032,988.139771 
	C739.519714,997.079773 746.392212,1005.198547 752.576843,1013.555359 
	C746.722107,1013.555359 739.676392,1013.649353 732.639465,1013.444092 
	C731.690857,1013.416382 730.510925,1012.044739 729.908081,1011.019165 
	C727.124512,1006.284058 724.507263,1001.451172 721.748291,996.329102 
z"/>
<path fill="#DBB99D" opacity="1.000000" stroke="none" 
	d="
M656.580078,865.770691 
	C653.775391,866.175293 650.588928,866.461731 647.165771,866.769409 
	C651.849182,872.986267 657.052124,878.942017 661.163635,885.574341 
	C667.256287,895.402527 672.576660,905.709534 678.219116,915.816406 
	C678.541931,916.394714 678.771912,917.025330 679.101990,917.598816 
	C685.625183,928.931335 692.191528,940.239197 698.677246,951.593201 
	C705.567017,963.654602 712.428650,975.732971 719.175232,987.874634 
	C720.097595,989.534607 720.283447,991.603821 720.749634,993.886292 
	C711.778381,978.756104 702.867798,963.223145 693.214783,946.395874 
	C682.330933,969.158508 665.595764,987.675415 661.827087,1013.182861 
	C656.754883,1013.182861 650.874084,1013.182861 644.985718,1013.182861 
	C665.371216,994.138489 675.227234,968.030884 689.739929,944.985779 
	C690.508484,943.765320 690.588013,941.312744 689.874695,940.076233 
	C678.245361,919.916992 666.634644,899.740479 654.531555,879.865295 
	C651.399841,874.722412 646.597046,870.597046 642.252808,865.652527 
	C646.815796,865.652527 651.507080,865.652527 656.580078,865.770691 
z"/>
<path fill="#DBB99D" opacity="1.000000" stroke="none" 
	d="
M627.262756,642.288879 
	C626.047913,641.208496 624.837646,640.122742 623.609497,639.057739 
	C623.511108,638.972473 623.288574,639.035034 623.124512,639.020020 
	C611.296204,637.942078 611.133057,638.077026 609.425171,650.580200 
	C608.718994,646.849121 608.175537,642.756714 607.577576,638.253540 
	C609.181458,638.131653 610.588745,637.932800 611.996155,637.931580 
	C630.933228,637.915405 649.875000,637.688416 668.804626,638.066956 
	C675.011719,638.191040 681.187073,639.904358 687.623840,641.026184 
	C682.676025,640.448792 677.489929,639.662048 672.282349,639.061096 
	C670.283569,638.830444 668.235840,639.023560 666.206848,640.029114 
	C669.700134,641.491638 673.193420,642.954163 676.430908,644.701538 
	C674.115601,644.348755 672.070557,643.213928 669.994324,643.153625 
	C655.754150,642.739563 641.507385,642.550476 627.262756,642.288879 
z"/>
<path fill="#C4B5AC" opacity="1.000000" stroke="none" 
	d="
M776.140503,685.273560 
	C777.469666,686.725525 778.641235,688.178223 779.505310,689.795166 
	C780.407104,691.482422 781.012634,693.327942 781.788208,695.202087 
	C786.181091,692.969055 783.868164,686.178894 789.421387,684.905640 
	C789.421387,690.651978 789.421387,695.862549 789.421387,701.073059 
	C789.093811,701.089966 788.766174,701.106934 788.438599,701.123840 
	C788.098511,698.860168 787.758423,696.596497 787.418335,694.332886 
	C787.078064,694.252808 786.737854,694.172729 786.397583,694.092651 
	C785.150146,696.568726 783.902649,699.044800 782.202515,702.419373 
	C780.625000,699.338562 779.526672,697.193481 777.742188,693.708313 
	C777.198853,697.121033 776.891907,699.048828 776.585022,700.976562 
	C776.180786,700.967957 775.776611,700.959351 775.372437,700.950745 
	C774.886414,695.768677 773.982117,690.599243 776.140503,685.273560 
z"/>
<path fill="#C4B5AC" opacity="1.000000" stroke="none" 
	d="
M460.945953,689.762451 
	C461.564819,684.943481 464.633850,684.421265 468.223022,685.420593 
	C469.281067,685.715149 470.842834,687.907288 470.784729,687.971436 
	C468.000305,691.044800 471.074219,693.560425 471.223724,696.274109 
	C471.316833,697.963318 469.117432,700.811829 467.395844,701.338379 
	C464.439758,702.242554 461.292999,701.399475 460.525482,696.014099 
	C462.282898,697.431824 463.059875,698.568420 463.927155,698.642029 
	C465.323486,698.760681 466.779449,698.177917 468.210205,697.891479 
	C467.700348,696.705933 467.475769,695.226013 466.620331,694.397156 
	C464.922760,692.752258 462.877319,691.466370 460.945953,689.762451 
M466.500000,690.000000 
	C466.633331,689.799988 466.766663,689.600037 466.899994,689.400024 
	C466.600006,689.433350 466.299988,689.466675 466.500000,690.000000 
z"/>
<path fill="#DBB99D" opacity="1.000000" stroke="none" 
	d="
M721.357666,768.912354 
	C721.713074,762.588440 722.947327,756.076904 722.910156,749.572571 
	C722.812561,732.483643 710.341797,719.101562 693.189880,716.929443 
	C692.286621,716.815063 691.426636,716.359558 690.546448,716.062866 
	C690.313110,715.538757 690.079773,715.014709 689.846436,714.490601 
	C692.728760,712.741211 695.611084,710.991821 698.860352,709.217529 
	C697.268494,710.823669 695.309814,712.454712 692.608032,714.704529 
	C706.583862,718.001038 718.063599,723.896729 722.822998,737.619019 
	C726.411743,747.966431 726.138062,758.511780 721.357666,768.912354 
z"/>
<path fill="#DBB99D" opacity="1.000000" stroke="none" 
	d="
M609.293457,653.842773 
	C608.113831,653.841736 606.302124,654.801331 605.055054,654.314453 
	C591.023438,648.836121 580.753845,639.588623 579.529846,623.854126 
	C578.968567,616.639282 578.084167,608.238586 585.651367,602.931274 
	C586.571899,602.285706 587.666687,601.888550 589.040894,601.391724 
	C577.612976,614.696228 577.857605,630.850098 591.039734,643.100952 
	C596.071838,647.777588 602.908997,650.512085 609.293457,653.842773 
z"/>
<path fill="#EABF98" opacity="1.000000" stroke="none" 
	d="
M652.084839,608.083862 
	C652.084839,608.083862 652.008179,607.794006 651.750977,607.903931 
	C648.676575,610.873901 645.859436,613.734009 643.042236,616.594116 
	C642.545959,616.741394 642.049683,616.888733 641.553406,617.036011 
	C642.191833,608.322388 636.899231,603.344299 629.851562,598.318909 
	C632.662354,597.470093 633.994446,597.067871 635.326538,596.665588 
	C635.326538,596.665588 635.216858,596.691223 635.376160,596.940674 
	C638.940796,599.147461 642.425415,600.981628 645.724060,603.104797 
	C647.978577,604.555908 649.973694,606.409973 652.084839,608.083862 
z"/>
<path fill="#C4B5AC" opacity="1.000000" stroke="none" 
	d="
M810.827515,697.152405 
	C808.258423,702.650879 803.727173,701.347229 799.206238,701.242432 
	C799.206238,695.969421 799.206238,690.882935 799.206238,685.788513 
	C808.821106,683.551147 813.243408,687.708008 810.827515,697.152405 
M801.139099,696.161682 
	C801.283997,697.367493 801.428894,698.573242 801.570435,699.750732 
	C807.846985,699.278687 809.574768,697.485107 809.152344,692.291870 
	C808.813110,688.121399 806.760315,686.818420 801.146790,687.483948 
	C801.146790,690.046082 801.146790,692.655151 801.139099,696.161682 
z"/>
<path fill="#DBB99D" opacity="1.000000" stroke="none" 
	d="
M635.098145,596.427734 
	C633.994446,597.067871 632.662354,597.470093 629.851562,598.318909 
	C636.899231,603.344299 642.191833,608.322388 641.553406,617.036011 
	C642.049683,616.888733 642.545959,616.741394 643.042236,616.594116 
	C645.859436,613.734009 648.676575,610.873901 651.898621,607.877563 
	C649.131531,611.968506 645.959656,616.195679 642.087708,621.355774 
	C638.987183,606.129272 630.906494,596.832947 615.438110,594.865906 
	C617.923889,594.904907 620.777588,595.147949 623.629822,595.131958 
	C625.038330,595.124084 626.444092,594.638306 627.935425,594.071472 
	C630.302979,594.579407 632.586365,595.384583 635.098145,596.427734 
z"/>
<path fill="#DBB99D" opacity="1.000000" stroke="none" 
	d="
M699.511230,709.110596 
	C699.581909,708.015869 699.614990,706.450806 700.414124,705.653015 
	C711.685425,694.400024 716.315613,674.463867 708.810730,660.325867 
	C707.600037,658.045044 706.398438,655.759338 705.222961,653.095337 
	C715.834534,664.083008 717.267029,682.597168 708.369934,698.096313 
	C706.095581,702.058411 702.706665,705.380737 699.511230,709.110596 
z"/>
<path fill="#C4B5AC" opacity="1.000000" stroke="none" 
	d="
M443.671631,692.089050 
	C443.672729,689.658813 443.672729,687.686096 443.672729,685.619263 
	C447.013794,685.619263 449.901581,685.619263 453.450653,685.619263 
	C451.016052,688.384521 444.334473,684.802002 446.356842,691.671143 
	C448.523438,691.921570 450.659882,692.168518 452.796295,692.415466 
	C452.799683,692.781799 452.803070,693.148132 452.806458,693.514465 
	C450.680756,693.798218 448.555084,694.081909 446.215729,694.394165 
	C446.215729,695.983276 446.215729,697.431641 446.215729,699.174316 
	C448.606293,699.492371 450.919098,699.800110 453.231903,700.107849 
	C453.214722,700.386658 453.197571,700.665405 453.180420,700.944214 
	C450.183075,700.944214 447.185730,700.944214 443.670532,700.944214 
	C443.670532,698.110535 443.670532,695.328491 443.671631,692.089050 
z"/>
<path fill="#C4B5AC" opacity="1.000000" stroke="none" 
	d="
M826.833862,692.015503 
	C827.821472,692.196777 828.376038,692.377075 828.930603,692.557312 
	C828.943665,692.872925 828.956726,693.188477 828.969788,693.504089 
	C826.857910,693.757751 824.746094,694.011353 822.349915,694.299194 
	C822.349915,695.876709 822.349915,697.455139 822.349915,699.414978 
	C824.752563,699.606079 827.129822,699.795166 829.507080,699.984253 
	C829.504456,700.271606 829.501831,700.558899 829.499207,700.846191 
	C826.430420,700.846191 823.361633,700.846191 820.038452,700.846191 
	C820.038452,695.840881 820.038452,690.733398 820.038452,685.425049 
	C823.162048,685.425049 826.028992,685.425049 828.895935,685.425049 
	C828.950562,685.801758 829.005249,686.178467 829.059875,686.555176 
	C826.836609,686.797302 824.613281,687.039490 822.229126,687.299194 
	C822.229126,688.652100 822.229126,689.950989 822.229126,691.719299 
	C823.575500,691.814575 824.988159,691.914551 826.833862,692.015503 
z"/>
<path fill="#191B31" opacity="1.000000" stroke="none" 
	d="
M589.188538,882.786743 
	C589.770996,885.348206 590.746826,888.419678 590.755432,891.493958 
	C590.844238,923.303955 590.776978,955.114319 590.448242,987.271973 
	C589.806519,952.845581 589.469727,918.071899 589.188538,882.786743 
z"/>
<path fill="#C4B5AC" opacity="1.000000" stroke="none" 
	d="
M482.005096,689.290283 
	C480.754608,687.936279 479.503845,686.998047 477.795410,685.716431 
	C481.574524,685.716431 485.138672,685.716431 488.702850,685.716431 
	C488.750122,685.947266 488.797394,686.178162 488.844666,686.408997 
	C487.555542,686.768066 486.266388,687.127136 484.026428,687.751038 
	C484.026428,692.099792 484.026428,696.667175 484.026428,701.234558 
	C483.352570,701.219238 482.678680,701.203857 482.004822,701.188538 
	C482.004822,697.361084 482.004822,693.533569 482.005096,689.290283 
z"/>
<path fill="#DBB99D" opacity="1.000000" stroke="none" 
	d="
M652.377563,607.919373 
	C649.973694,606.409973 647.978577,604.555908 645.724060,603.104797 
	C642.425415,600.981628 638.940796,599.147461 635.367859,596.884888 
	C641.671631,599.150085 648.143066,601.720459 655.020996,604.452332 
	C654.475525,605.218689 653.572937,606.486755 652.377563,607.919373 
z"/>
<path fill="#DBB99D" opacity="1.000000" stroke="none" 
	d="
M705.172180,652.442688 
	C699.871033,649.240784 694.451050,645.725647 688.973389,641.880005 
	C694.294861,645.076172 699.674072,648.602844 705.172180,652.442688 
z"/>
<path fill="#DBB99D" opacity="1.000000" stroke="none" 
	d="
M593.385010,598.957886 
	C598.438416,594.498047 604.500427,592.304749 611.810852,594.267456 
	C605.929199,596.002258 599.846680,597.450439 593.385010,598.957886 
z"/>
<path fill="#DBB99D" opacity="1.000000" stroke="none" 
	d="
M589.695923,601.312012 
	C590.359375,600.612122 591.321960,599.812622 592.652954,599.011597 
	C592.012634,599.744202 591.003906,600.478333 589.695923,601.312012 
z"/>
<path fill="#DBB99D" opacity="1.000000" stroke="none" 
	d="
M720.693665,994.486084 
	C720.982178,994.297119 721.144287,994.464233 721.096802,994.888794 
	C721.039795,995.009216 720.719788,994.705200 720.693665,994.486084 
z"/>
<path fill="#191B31" opacity="1.000000" stroke="none" 
	d="
M627.312744,642.739746 
	C641.507385,642.550476 655.754150,642.739563 669.994324,643.153625 
	C672.070557,643.213928 674.115601,644.348755 676.562012,645.028198 
	C676.948975,645.070129 676.956543,645.016663 677.115295,645.278076 
	C677.841492,645.701782 678.408936,645.864014 678.976379,646.026306 
	C678.976379,646.026306 679.000000,646.000000 679.194336,646.267334 
	C680.904663,647.401184 682.420593,648.267639 683.936523,649.134094 
	C684.464233,649.702515 684.991882,650.270874 685.934082,651.215942 
	C687.429260,652.662170 688.510010,653.731689 689.590759,654.801270 
	C690.051941,655.514771 690.513123,656.228271 691.293335,657.394653 
	C692.321594,658.980896 693.030884,660.114319 693.740173,661.247742 
	C693.740173,661.247742 693.759949,661.175293 693.771973,661.472046 
	C694.076965,662.281311 694.369873,662.793884 694.662781,663.306396 
	C694.662781,663.306396 694.672058,663.231140 694.692505,663.627686 
	C698.141296,673.638550 697.787842,683.274475 694.878784,692.925110 
	C694.878784,692.925110 694.960022,692.930481 694.680908,693.139343 
	C692.870422,696.195496 691.338989,699.042786 689.807556,701.890076 
	C689.476685,701.957520 689.239868,702.144226 688.753235,702.786133 
	C687.920837,703.741455 687.432190,704.360779 686.943542,704.980042 
	C686.346924,705.419556 685.750244,705.859009 684.755737,706.616333 
	C684.110840,707.204407 683.863892,707.474548 683.616882,707.744690 
	C683.616882,707.744690 683.701965,707.744812 683.358643,707.815674 
	C680.119385,709.174622 677.223450,710.462769 674.327576,711.750977 
	C670.784729,712.489868 667.241821,713.228760 663.311523,714.048462 
	C663.064392,710.372253 663.096619,706.783142 662.541443,703.287231 
	C659.933289,686.862305 650.271301,675.475952 635.747437,668.469360 
	C628.899963,665.166016 626.103088,661.049744 627.280762,653.639160 
	C627.821228,650.237854 627.366333,646.678406 627.312744,642.739746 
z"/>
<path fill="#DBB99D" opacity="1.000000" stroke="none" 
	d="
M695.223999,692.798767 
	C697.787842,683.274475 698.141296,673.638550 694.654541,663.628296 
	C695.217407,663.769958 695.981750,664.208069 696.436218,664.861694 
	C699.207581,668.846375 698.552490,688.598145 695.223999,692.798767 
z"/>
<path fill="#DBB99D" opacity="1.000000" stroke="none" 
	d="
M690.167114,701.837646 
	C691.338989,699.042786 692.870422,696.195496 694.651733,693.111023 
	C695.234131,696.723511 695.013672,700.301636 690.167114,701.837646 
z"/>
<path fill="#DBB99D" opacity="1.000000" stroke="none" 
	d="
M674.780029,711.801636 
	C677.223450,710.462769 680.119385,709.174622 683.353943,707.773315 
	C682.660889,712.666687 678.580200,711.519958 674.780029,711.801636 
z"/>
<path fill="#DBB99D" opacity="1.000000" stroke="none" 
	d="
M683.860718,648.781616 
	C682.420593,648.267639 680.904663,647.401184 679.182678,646.280640 
	C680.579346,646.827393 682.182129,647.628235 683.860718,648.781616 
z"/>
<path fill="#DBB99D" opacity="1.000000" stroke="none" 
	d="
M689.615295,654.417847 
	C688.510010,653.731689 687.429260,652.662170 686.217041,651.297852 
	C687.270325,652.013550 688.455078,653.023987 689.615295,654.417847 
z"/>
<path fill="#DBB99D" opacity="1.000000" stroke="none" 
	d="
M693.780029,660.854431 
	C693.030884,660.114319 692.321594,658.980896 691.521118,657.518799 
	C692.226624,658.280457 693.023315,659.370789 693.780029,660.854431 
z"/>
<path fill="#DBB99D" opacity="1.000000" stroke="none" 
	d="
M687.243652,704.893555 
	C687.432190,704.360779 687.920837,703.741455 688.688599,703.010254 
	C688.493042,703.534607 688.018372,704.170837 687.243652,704.893555 
z"/>
<path fill="#DBB99D" opacity="1.000000" stroke="none" 
	d="
M694.657593,662.996460 
	C694.369873,662.793884 694.076965,662.281311 693.734497,661.470337 
	C694.007446,661.676819 694.329956,662.181641 694.657593,662.996460 
z"/>
<path fill="#DBB99D" opacity="1.000000" stroke="none" 
	d="
M678.761841,645.828125 
	C678.408936,645.864014 677.841492,645.701782 677.096497,645.297363 
	C677.461731,645.246704 678.004456,645.438354 678.761841,645.828125 
z"/>
<path fill="#DBB99D" opacity="1.000000" stroke="none" 
	d="
M683.866211,707.637939 
	C683.863892,707.474548 684.110840,707.204407 684.629761,706.867432 
	C684.639709,707.044189 684.377563,707.287720 683.866211,707.637939 
z"/>
<path fill="#191B31" opacity="1.000000" stroke="none" 
	d="
M913.952637,890.223022 
	C919.306946,905.939209 921.157471,921.380920 914.957458,936.910828 
	C913.763184,939.902039 911.879272,942.617920 910.193359,945.679016 
	C892.972229,926.845886 868.180176,928.382202 861.158203,947.353638 
	C861.158203,945.841675 861.139038,944.329407 861.160950,942.817810 
	C861.426697,924.500916 861.655334,906.183289 862.017273,887.868286 
	C862.069153,885.241150 862.532654,882.562378 863.217224,880.018311 
	C865.747559,870.614929 872.377197,865.828796 882.129028,866.712891 
	C897.235596,868.082520 907.824036,875.890503 913.952637,890.223022 
z"/>
<path fill="#151932" opacity="1.000000" stroke="none" 
	d="
M466.250000,689.750000 
	C466.299988,689.466675 466.600006,689.433350 466.899994,689.400024 
	C466.766663,689.600037 466.633331,689.799988 466.250000,689.750000 
z"/>
<path fill="#191B31" opacity="1.000000" stroke="none" 
	d="
M801.142944,695.713013 
	C801.146790,692.655151 801.146790,690.046082 801.146790,687.483948 
	C806.760315,686.818420 808.813110,688.121399 809.152344,692.291870 
	C809.574768,697.485107 807.846985,699.278687 801.570435,699.750732 
	C801.428894,698.573242 801.283997,697.367493 801.142944,695.713013 
z"/>
</svg>